<svg width="759" height="499" viewBox="0 0 759 499" fill="none" xmlns="http://www.w3.org/2000/svg">
<path d="M213 47H226C245.33 47 261 62.67 261 82V499C234.49 499 213 477.51 213 451V47Z" fill="#7B4AE2"/>
<path d="M47 248C30.9838 248 18 235.016 18 219V202L743.99 202C743.457 227.496 722.623 248 697 248L47 248Z" fill="#7B4AE2" stroke="black" stroke-width="2"/>
<path d="M377.533 49.903C390.438 22.7102 422.944 11.1274 450.136 24.0322L456.009 26.8189L261.588 436.501C249.868 461.199 220.344 471.719 195.646 459.998L185.257 455.067L377.533 49.903Z" fill="#7B4AE2" stroke="black"/>
<path d="M622.271 291.832L738.751 316.681L653.659 400.014L622.271 291.832Z" fill="#7B4AE2" stroke="black"/>
<path d="M563.471 71.5391L643.679 99.2843L579.547 154.873L563.471 71.5391Z" fill="#7B4AE2" stroke="black"/>
<path d="M303 230.01L315.51 212L572.65 390.618C565.741 400.564 552.077 403.027 542.13 396.118L303 230.01Z" fill="#7B4AE2"/>
<path d="M208.671 50.1138C221.738 40.3816 240.219 43.0844 249.952 56.1507L260.405 70.1855L29.13 242.446L18.6765 228.412C8.94436 215.345 11.6472 196.863 24.7134 187.131L208.671 50.1138Z" fill="#7B4AE2" stroke="black"/>
<path d="M595.723 399.812L587.438 402.649C561.574 411.505 533.428 397.718 524.572 371.854L405.635 24.5075L413.921 21.6704C439.784 12.8143 467.931 26.6018 476.787 52.4656L595.723 399.812Z" fill="#7B4AE2" stroke="black"/>
</svg>
